# xmcd
#
# Track frame offsets: 
#        150
#        19469
#        37578
#        53567
#        69319
#        89293
#        103095
#        121333
#        142134
#        159320
#        177762
#        193234
#        216928
#        231893
#        246959
#        266494
#        284705
#        299665
#        316040
#        336585
#
# Disc length: 4689 seconds
#
# Revision: 0
# Processed by: cddbd v1.5.1PL0 Copyright (c) Steve Scherf et al.
# Submitted via: ExactAudioCopy v0.95a5
#
DISCID=33124f14
DTITLE=Anastacia - Anastacia
DYEAR=2004
DGENRE=Soul
TTITLE0=Seasons Change
TTITLE1=Left Outside Alone
TTITLE2=Time
TTITLE3=Sick And Tired
TTITLE4=Heavy On My Heart
TTITLE5=I Do
TTITLE6=Welcome To My Truth
TTITLE7=Pretty Little Dum Dum
TTITLE8=Sexy Single
TTITLE9=Rearview
TTITLE10=Where Do I Belong
TTITLE11=Maybe Today
TTITLE12=Boom
TTITLE13=Made For Lovin' You
TTITLE14=Don't Stop (doin' it)
TTITLE15=I'm Outta Love
TTITLE16=Love Is A Crime
TTITLE17=Freak Of Nature
TTITLE18=Overdue Goodbye
TTITLE19=Not That Kind
EXTD=
EXTT0=
EXTT1=
EXTT2=
EXTT3=
EXTT4=
EXTT5=
EXTT6=
EXTT7=
EXTT8=
EXTT9=
EXTT10=
EXTT11=
EXTT12=
EXTT13=
EXTT14=
EXTT15=
EXTT16=
EXTT17=
EXTT18=
EXTT19=
PLAYORDER=
